<svg width="32" height="32" viewBox="0 0 32 32" fill="none" xmlns="http://www.w3.org/2000/svg">
<rect width="32" height="32" rx="3" fill="#011C40"/>
<path fill-rule="evenodd" clip-rule="evenodd" d="M1.38722 21.3393L7.28827 13.3755L8.90265 14.2383L12.744 8L15.1377 10.8538L16.0285 10.1237L19.48 14.5038L21.9295 11.5837L28.7768 21.3393L22.18 13.0438L21.1779 16.5279L22.0964 19.2821L16.1954 11.1524L16.1315 13.9262L19.48 21.3393L13.217 9.85818L15.0264 16.0634L12.4935 10.0241L11.1017 14.0393L11.3799 11.4177L7.90054 20.8747L8.31797 16.8929L6.87062 15.3002L1.38722 21.3393Z" fill="#F9FBFD"/>
<path fill-rule="evenodd" clip-rule="evenodd" d="M30.7606 22.5849C21.4176 15.0406 6.87531 25.4124 1 21.4126C7.45957 27.0807 22.558 17.499 30.7606 22.5849Z" fill="#F9FBFD"/>
<path fill-rule="evenodd" clip-rule="evenodd" d="M31 23.1782C23.6696 18.5073 12.7672 25.0074 7.17953 23.5022C13.2343 26.4407 24.5064 19.9297 31 23.1782Z" fill="#F9FBFD"/>
</svg>
